<mxfile host="app.diagrams.net" modified="2022-06-18T09:06:43.679Z" agent="5.0 (Windows NT 10.0; WOW64) AppleWebKit/537.36 (KHTML, like Gecko) Chrome/71.0.3578.98 Safari/537.36" etag="xaHbStzoki3BXYv3xRNK" version="20.0.1" type="github">
  <diagram name="Page-1" id="74e2e168-ea6b-b213-b513-2b3c1d86103e">
    <mxGraphModel dx="1602" dy="4274" grid="1" gridSize="10" guides="1" tooltips="1" connect="1" arrows="1" fold="1" page="1" pageScale="1" pageWidth="4681" pageHeight="3300" background="none" math="0" shadow="0">
      <root>
        <mxCell id="0" />
        <mxCell id="1" parent="0" />
        <mxCell id="77e6c97f196da883-4" value="DeviceApConfigTask" style="swimlane;html=1;startSize=20;fontSize=15;fillColor=none;" parent="1" vertex="1">
          <mxGeometry x="670" width="400" height="1380" as="geometry">
            <mxRectangle x="990" y="-10" width="180" height="20" as="alternateBounds" />
          </mxGeometry>
        </mxCell>
        <mxCell id="G-COS3JicrVC8gvn0CJn-81" style="edgeStyle=orthogonalEdgeStyle;rounded=0;orthogonalLoop=1;jettySize=auto;html=1;entryX=0.25;entryY=0;entryDx=0;entryDy=0;fontSize=15;exitX=0.5;exitY=1;exitDx=0;exitDy=0;curved=1;" edge="1" parent="77e6c97f196da883-4" source="G-COS3JicrVC8gvn0CJn-10" target="G-COS3JicrVC8gvn0CJn-59">
          <mxGeometry relative="1" as="geometry">
            <mxPoint x="120" y="230" as="sourcePoint" />
          </mxGeometry>
        </mxCell>
        <mxCell id="G-COS3JicrVC8gvn0CJn-10" value="startTask()" style="rounded=1;whiteSpace=wrap;html=1;shadow=0;labelBackgroundColor=none;strokeWidth=1;fontFamily=Verdana;fontSize=8;align=center;" vertex="1" parent="77e6c97f196da883-4">
          <mxGeometry x="18" y="200" width="150" height="35" as="geometry" />
        </mxCell>
        <mxCell id="G-COS3JicrVC8gvn0CJn-34" value="WRITE_DEVICE_ID" style="rounded=1;whiteSpace=wrap;html=1;shadow=0;labelBackgroundColor=none;strokeWidth=1;fontFamily=Verdana;fontSize=8;align=center;fillColor=#ffe6cc;strokeColor=#d79b00;" vertex="1" parent="77e6c97f196da883-4">
          <mxGeometry x="178" y="962" width="194" height="35" as="geometry" />
        </mxCell>
        <mxCell id="G-COS3JicrVC8gvn0CJn-35" value="CONNECT_DEVICE" style="rounded=1;whiteSpace=wrap;html=1;shadow=0;labelBackgroundColor=none;strokeWidth=1;fontFamily=Verdana;fontSize=8;align=center;fillColor=#ffe6cc;strokeColor=#d79b00;" vertex="1" parent="77e6c97f196da883-4">
          <mxGeometry x="178" y="890" width="194" height="35" as="geometry" />
        </mxCell>
        <mxCell id="G-COS3JicrVC8gvn0CJn-36" value="GET_DEVICE_BASIC_INFO" style="rounded=1;whiteSpace=wrap;html=1;shadow=0;labelBackgroundColor=none;strokeWidth=1;fontFamily=Verdana;fontSize=8;align=center;fillColor=#ffe6cc;strokeColor=#d79b00;" vertex="1" parent="77e6c97f196da883-4">
          <mxGeometry x="178" y="1034" width="194" height="35" as="geometry" />
        </mxCell>
        <mxCell id="G-COS3JicrVC8gvn0CJn-37" value="SWITCH_STA" style="rounded=1;whiteSpace=wrap;html=1;shadow=0;labelBackgroundColor=none;strokeWidth=1;fontFamily=Verdana;fontSize=8;align=center;fillColor=#ffe6cc;strokeColor=#d79b00;" vertex="1" parent="77e6c97f196da883-4">
          <mxGeometry x="178" y="1178" width="194" height="35" as="geometry" />
        </mxCell>
        <mxCell id="G-COS3JicrVC8gvn0CJn-38" value="WRITE_WIFI_CONFIGURATION" style="rounded=1;whiteSpace=wrap;html=1;shadow=0;labelBackgroundColor=none;strokeWidth=1;fontFamily=Verdana;fontSize=8;align=center;fillColor=#ffe6cc;strokeColor=#d79b00;" vertex="1" parent="77e6c97f196da883-4">
          <mxGeometry x="178" y="1106" width="194" height="35" as="geometry" />
        </mxCell>
        <mxCell id="G-COS3JicrVC8gvn0CJn-39" value="RECONNECT_ROUTER" style="rounded=1;whiteSpace=wrap;html=1;shadow=0;labelBackgroundColor=none;strokeWidth=1;fontFamily=Verdana;fontSize=8;align=center;fillColor=#ffe6cc;strokeColor=#d79b00;" vertex="1" parent="77e6c97f196da883-4">
          <mxGeometry x="178" y="1250" width="194" height="35" as="geometry" />
        </mxCell>
        <mxCell id="G-COS3JicrVC8gvn0CJn-41" value="FIND_DEVICE_IN_ROUTER" style="rounded=1;whiteSpace=wrap;html=1;shadow=0;labelBackgroundColor=none;strokeWidth=1;fontFamily=Verdana;fontSize=8;align=center;fillColor=#ffe6cc;strokeColor=#d79b00;" vertex="1" parent="77e6c97f196da883-4">
          <mxGeometry x="180" y="1322" width="194" height="35" as="geometry" />
        </mxCell>
        <mxCell id="G-COS3JicrVC8gvn0CJn-80" value="" style="group" vertex="1" connectable="0" parent="77e6c97f196da883-4">
          <mxGeometry x="18" y="270" width="354" height="560" as="geometry" />
        </mxCell>
        <mxCell id="G-COS3JicrVC8gvn0CJn-60" value="" style="rounded=1;whiteSpace=wrap;html=1;absoluteArcSize=1;arcSize=14;strokeWidth=1;fontSize=17;fillColor=none;dashed=1;" vertex="1" parent="G-COS3JicrVC8gvn0CJn-80">
          <mxGeometry width="354" height="560" as="geometry" />
        </mxCell>
        <mxCell id="G-COS3JicrVC8gvn0CJn-12" value="ENABLE_WIFI" style="rounded=1;whiteSpace=wrap;html=1;shadow=0;labelBackgroundColor=none;strokeWidth=1;fontFamily=Verdana;fontSize=8;align=center;fillColor=#ffe6cc;strokeColor=#d79b00;" vertex="1" parent="G-COS3JicrVC8gvn0CJn-80">
          <mxGeometry x="138" y="110" width="194" height="35" as="geometry" />
        </mxCell>
        <mxCell id="G-COS3JicrVC8gvn0CJn-30" value="CONNECT_DEVICE_AP" style="rounded=1;whiteSpace=wrap;html=1;shadow=0;labelBackgroundColor=none;strokeWidth=1;fontFamily=Verdana;fontSize=8;align=center;fillColor=#ffe6cc;strokeColor=#d79b00;" vertex="1" parent="G-COS3JicrVC8gvn0CJn-80">
          <mxGeometry x="138" y="339" width="194" height="35" as="geometry" />
        </mxCell>
        <mxCell id="G-COS3JicrVC8gvn0CJn-32" value="CONNECT_ROUTER" style="rounded=1;whiteSpace=wrap;html=1;shadow=0;labelBackgroundColor=none;strokeWidth=1;fontFamily=Verdana;fontSize=8;align=center;fillColor=#ffe6cc;strokeColor=#d79b00;" vertex="1" parent="G-COS3JicrVC8gvn0CJn-80">
          <mxGeometry x="138" y="224" width="194" height="35" as="geometry" />
        </mxCell>
        <mxCell id="G-COS3JicrVC8gvn0CJn-33" value="FIND_DEVICE_IN_AP" style="rounded=1;whiteSpace=wrap;html=1;shadow=0;labelBackgroundColor=none;strokeWidth=1;fontFamily=Verdana;fontSize=8;align=center;fillColor=#ffe6cc;strokeColor=#d79b00;" vertex="1" parent="G-COS3JicrVC8gvn0CJn-80">
          <mxGeometry x="134" y="453" width="194" height="35" as="geometry" />
        </mxCell>
        <mxCell id="G-COS3JicrVC8gvn0CJn-62" style="edgeStyle=orthogonalEdgeStyle;rounded=0;orthogonalLoop=1;jettySize=auto;html=1;exitX=0.5;exitY=1;exitDx=0;exitDy=0;entryX=0;entryY=0.5;entryDx=0;entryDy=0;fontSize=17;" edge="1" parent="G-COS3JicrVC8gvn0CJn-80" source="G-COS3JicrVC8gvn0CJn-59" target="G-COS3JicrVC8gvn0CJn-12">
          <mxGeometry relative="1" as="geometry" />
        </mxCell>
        <mxCell id="G-COS3JicrVC8gvn0CJn-68" style="edgeStyle=orthogonalEdgeStyle;rounded=0;orthogonalLoop=1;jettySize=auto;html=1;exitX=0.5;exitY=1;exitDx=0;exitDy=0;entryX=0;entryY=0.5;entryDx=0;entryDy=0;fontSize=17;" edge="1" parent="G-COS3JicrVC8gvn0CJn-80" source="G-COS3JicrVC8gvn0CJn-59" target="G-COS3JicrVC8gvn0CJn-32">
          <mxGeometry relative="1" as="geometry" />
        </mxCell>
        <mxCell id="G-COS3JicrVC8gvn0CJn-69" style="edgeStyle=orthogonalEdgeStyle;rounded=0;orthogonalLoop=1;jettySize=auto;html=1;exitX=0.5;exitY=1;exitDx=0;exitDy=0;entryX=0;entryY=0.5;entryDx=0;entryDy=0;fontSize=17;" edge="1" parent="G-COS3JicrVC8gvn0CJn-80" source="G-COS3JicrVC8gvn0CJn-59" target="G-COS3JicrVC8gvn0CJn-30">
          <mxGeometry relative="1" as="geometry" />
        </mxCell>
        <mxCell id="G-COS3JicrVC8gvn0CJn-70" style="edgeStyle=orthogonalEdgeStyle;rounded=0;orthogonalLoop=1;jettySize=auto;html=1;exitX=0.5;exitY=1;exitDx=0;exitDy=0;entryX=0;entryY=0.5;entryDx=0;entryDy=0;fontSize=17;" edge="1" parent="G-COS3JicrVC8gvn0CJn-80" source="G-COS3JicrVC8gvn0CJn-59" target="G-COS3JicrVC8gvn0CJn-33">
          <mxGeometry relative="1" as="geometry" />
        </mxCell>
        <mxCell id="G-COS3JicrVC8gvn0CJn-74" value="(4)" style="edgeLabel;html=1;align=center;verticalAlign=middle;resizable=0;points=[];fontSize=17;" vertex="1" connectable="0" parent="G-COS3JicrVC8gvn0CJn-70">
          <mxGeometry x="0.5876" y="-1" relative="1" as="geometry">
            <mxPoint as="offset" />
          </mxGeometry>
        </mxCell>
        <mxCell id="G-COS3JicrVC8gvn0CJn-75" value="(3)" style="edgeLabel;html=1;align=center;verticalAlign=middle;resizable=0;points=[];fontSize=17;" vertex="1" connectable="0" parent="G-COS3JicrVC8gvn0CJn-70">
          <mxGeometry x="0.0098" relative="1" as="geometry">
            <mxPoint as="offset" />
          </mxGeometry>
        </mxCell>
        <mxCell id="G-COS3JicrVC8gvn0CJn-76" value="(2)" style="edgeLabel;html=1;align=center;verticalAlign=middle;resizable=0;points=[];fontSize=17;" vertex="1" connectable="0" parent="G-COS3JicrVC8gvn0CJn-70">
          <mxGeometry x="-0.4308" y="-1" relative="1" as="geometry">
            <mxPoint as="offset" />
          </mxGeometry>
        </mxCell>
        <mxCell id="G-COS3JicrVC8gvn0CJn-77" value="(1)" style="edgeLabel;html=1;align=center;verticalAlign=middle;resizable=0;points=[];fontSize=17;" vertex="1" connectable="0" parent="G-COS3JicrVC8gvn0CJn-70">
          <mxGeometry x="-0.842" y="2" relative="1" as="geometry">
            <mxPoint as="offset" />
          </mxGeometry>
        </mxCell>
        <mxCell id="G-COS3JicrVC8gvn0CJn-59" value="handleMessage()" style="rounded=1;whiteSpace=wrap;html=1;shadow=0;labelBackgroundColor=none;strokeWidth=1;fontFamily=Verdana;fontSize=8;align=center;fillColor=#f8cecc;strokeColor=#b85450;" vertex="1" parent="G-COS3JicrVC8gvn0CJn-80">
          <mxGeometry x="14" y="50" width="194" height="35" as="geometry" />
        </mxCell>
        <mxCell id="G-COS3JicrVC8gvn0CJn-61" value="CfgStepHandler" style="text;html=1;strokeColor=none;fillColor=none;align=center;verticalAlign=middle;whiteSpace=wrap;rounded=0;dashed=1;fontSize=17;fontStyle=1" vertex="1" parent="G-COS3JicrVC8gvn0CJn-80">
          <mxGeometry x="104" y="10" width="152" height="30" as="geometry" />
        </mxCell>
        <mxCell id="G-COS3JicrVC8gvn0CJn-63" value="handleEnableWifi()" style="rounded=1;whiteSpace=wrap;html=1;shadow=0;labelBackgroundColor=none;strokeWidth=1;fontFamily=Verdana;fontSize=8;align=center;fillColor=#E6FFCC;strokeColor=#d79b00;" vertex="1" parent="G-COS3JicrVC8gvn0CJn-80">
          <mxGeometry x="140" y="167" width="194" height="35" as="geometry" />
        </mxCell>
        <mxCell id="G-COS3JicrVC8gvn0CJn-67" style="edgeStyle=orthogonalEdgeStyle;rounded=0;orthogonalLoop=1;jettySize=auto;html=1;exitX=0.5;exitY=1;exitDx=0;exitDy=0;entryX=0.5;entryY=0;entryDx=0;entryDy=0;fontSize=17;" edge="1" parent="G-COS3JicrVC8gvn0CJn-80" source="G-COS3JicrVC8gvn0CJn-12" target="G-COS3JicrVC8gvn0CJn-63">
          <mxGeometry relative="1" as="geometry" />
        </mxCell>
        <mxCell id="G-COS3JicrVC8gvn0CJn-64" value="handleConnectRouter()" style="rounded=1;whiteSpace=wrap;html=1;shadow=0;labelBackgroundColor=none;strokeWidth=1;fontFamily=Verdana;fontSize=8;align=center;fillColor=#E6FFCC;strokeColor=#d79b00;" vertex="1" parent="G-COS3JicrVC8gvn0CJn-80">
          <mxGeometry x="138" y="281" width="194" height="35" as="geometry" />
        </mxCell>
        <mxCell id="G-COS3JicrVC8gvn0CJn-71" style="edgeStyle=orthogonalEdgeStyle;rounded=0;orthogonalLoop=1;jettySize=auto;html=1;exitX=0.5;exitY=1;exitDx=0;exitDy=0;fontSize=17;" edge="1" parent="G-COS3JicrVC8gvn0CJn-80" source="G-COS3JicrVC8gvn0CJn-32" target="G-COS3JicrVC8gvn0CJn-64">
          <mxGeometry relative="1" as="geometry" />
        </mxCell>
        <mxCell id="G-COS3JicrVC8gvn0CJn-65" value="handleConnectAP()" style="rounded=1;whiteSpace=wrap;html=1;shadow=0;labelBackgroundColor=none;strokeWidth=1;fontFamily=Verdana;fontSize=8;align=center;fillColor=#E6FFCC;strokeColor=#d79b00;" vertex="1" parent="G-COS3JicrVC8gvn0CJn-80">
          <mxGeometry x="138" y="396" width="194" height="35" as="geometry" />
        </mxCell>
        <mxCell id="G-COS3JicrVC8gvn0CJn-72" style="edgeStyle=orthogonalEdgeStyle;rounded=0;orthogonalLoop=1;jettySize=auto;html=1;exitX=0.5;exitY=1;exitDx=0;exitDy=0;entryX=0.5;entryY=0;entryDx=0;entryDy=0;fontSize=17;" edge="1" parent="G-COS3JicrVC8gvn0CJn-80" source="G-COS3JicrVC8gvn0CJn-30" target="G-COS3JicrVC8gvn0CJn-65">
          <mxGeometry relative="1" as="geometry" />
        </mxCell>
        <mxCell id="G-COS3JicrVC8gvn0CJn-66" value="handleFindDeviceInAP()" style="rounded=1;whiteSpace=wrap;html=1;shadow=0;labelBackgroundColor=none;strokeWidth=1;fontFamily=Verdana;fontSize=8;align=center;fillColor=#E6FFCC;strokeColor=#d79b00;" vertex="1" parent="G-COS3JicrVC8gvn0CJn-80">
          <mxGeometry x="134" y="510" width="194" height="35" as="geometry" />
        </mxCell>
        <mxCell id="G-COS3JicrVC8gvn0CJn-73" value="" style="edgeStyle=orthogonalEdgeStyle;rounded=0;orthogonalLoop=1;jettySize=auto;html=1;fontSize=17;" edge="1" parent="G-COS3JicrVC8gvn0CJn-80" source="G-COS3JicrVC8gvn0CJn-33" target="G-COS3JicrVC8gvn0CJn-66">
          <mxGeometry relative="1" as="geometry" />
        </mxCell>
        <mxCell id="G-COS3JicrVC8gvn0CJn-157" value="" style="group" vertex="1" connectable="0" parent="77e6c97f196da883-4">
          <mxGeometry x="20" y="30" width="360" height="160" as="geometry" />
        </mxCell>
        <mxCell id="G-COS3JicrVC8gvn0CJn-151" value="" style="rounded=1;whiteSpace=wrap;html=1;absoluteArcSize=1;arcSize=14;strokeWidth=1;dashed=1;fontSize=15;fillColor=none;dashPattern=1 1;strokeColor=#000000;" vertex="1" parent="G-COS3JicrVC8gvn0CJn-157">
          <mxGeometry width="360" height="160" as="geometry" />
        </mxCell>
        <mxCell id="G-COS3JicrVC8gvn0CJn-152" value="" style="group;strokeColor=#00FF00;container=0;" vertex="1" connectable="0" parent="G-COS3JicrVC8gvn0CJn-157">
          <mxGeometry width="360" height="160" as="geometry" />
        </mxCell>
        <mxCell id="G-COS3JicrVC8gvn0CJn-118" value="DeviceApConfigTask()" style="rounded=1;whiteSpace=wrap;html=1;shadow=0;labelBackgroundColor=none;strokeWidth=1;fontFamily=Verdana;fontSize=8;align=center;" vertex="1" parent="G-COS3JicrVC8gvn0CJn-157">
          <mxGeometry x="8" y="60" width="150" height="35" as="geometry" />
        </mxCell>
        <mxCell id="G-COS3JicrVC8gvn0CJn-124" value="super()" style="rounded=1;whiteSpace=wrap;html=1;shadow=0;labelBackgroundColor=none;strokeWidth=1;fontFamily=Verdana;fontSize=8;align=center;" vertex="1" parent="G-COS3JicrVC8gvn0CJn-157">
          <mxGeometry x="200" y="10" width="150" height="35" as="geometry" />
        </mxCell>
        <mxCell id="G-COS3JicrVC8gvn0CJn-154" style="edgeStyle=orthogonalEdgeStyle;curved=1;rounded=0;orthogonalLoop=1;jettySize=auto;html=1;exitX=1;exitY=0;exitDx=0;exitDy=0;entryX=0;entryY=0.5;entryDx=0;entryDy=0;fontSize=15;" edge="1" parent="G-COS3JicrVC8gvn0CJn-157" source="G-COS3JicrVC8gvn0CJn-118" target="G-COS3JicrVC8gvn0CJn-124">
          <mxGeometry relative="1" as="geometry" />
        </mxCell>
        <mxCell id="G-COS3JicrVC8gvn0CJn-125" value="CfgStepHandler()" style="rounded=1;whiteSpace=wrap;html=1;shadow=0;labelBackgroundColor=none;strokeWidth=1;fontFamily=Verdana;fontSize=8;align=center;" vertex="1" parent="G-COS3JicrVC8gvn0CJn-157">
          <mxGeometry x="200" y="60" width="150" height="35" as="geometry" />
        </mxCell>
        <mxCell id="G-COS3JicrVC8gvn0CJn-155" style="edgeStyle=orthogonalEdgeStyle;curved=1;rounded=0;orthogonalLoop=1;jettySize=auto;html=1;exitX=1;exitY=0.5;exitDx=0;exitDy=0;entryX=0;entryY=0.5;entryDx=0;entryDy=0;fontSize=15;" edge="1" parent="G-COS3JicrVC8gvn0CJn-157" source="G-COS3JicrVC8gvn0CJn-118" target="G-COS3JicrVC8gvn0CJn-125">
          <mxGeometry relative="1" as="geometry" />
        </mxCell>
        <mxCell id="G-COS3JicrVC8gvn0CJn-126" value="NetworkMonitor()" style="rounded=1;whiteSpace=wrap;html=1;shadow=0;labelBackgroundColor=none;strokeWidth=1;fontFamily=Verdana;fontSize=8;align=center;" vertex="1" parent="G-COS3JicrVC8gvn0CJn-157">
          <mxGeometry x="200" y="110" width="150" height="35" as="geometry" />
        </mxCell>
        <mxCell id="G-COS3JicrVC8gvn0CJn-156" style="edgeStyle=orthogonalEdgeStyle;curved=1;rounded=0;orthogonalLoop=1;jettySize=auto;html=1;exitX=1;exitY=1;exitDx=0;exitDy=0;entryX=0;entryY=0.5;entryDx=0;entryDy=0;fontSize=15;" edge="1" parent="G-COS3JicrVC8gvn0CJn-157" source="G-COS3JicrVC8gvn0CJn-118" target="G-COS3JicrVC8gvn0CJn-126">
          <mxGeometry relative="1" as="geometry" />
        </mxCell>
        <mxCell id="77e6c97f196da883-1" value="&lt;p style=&quot;line-height: 2;&quot;&gt;Pool&lt;/p&gt;" style="swimlane;html=1;childLayout=stackLayout;startSize=20;rounded=0;shadow=0;labelBackgroundColor=none;strokeWidth=1;fontFamily=Verdana;fontSize=8;align=center;fillColor=none;" parent="1" vertex="1">
          <mxGeometry x="110" y="10" width="416" height="1400" as="geometry">
            <mxRectangle x="70" y="40" width="70" height="20" as="alternateBounds" />
          </mxGeometry>
        </mxCell>
        <mxCell id="77e6c97f196da883-2" value="MSDeviceConfigManager" style="swimlane;html=1;startSize=20;fillColor=#dae8fc;strokeColor=#6c8ebf;fontSize=15;" parent="77e6c97f196da883-1" vertex="1">
          <mxGeometry y="20" width="213" height="1380" as="geometry">
            <mxRectangle y="20" width="30" height="730" as="alternateBounds" />
          </mxGeometry>
        </mxCell>
        <mxCell id="77e6c97f196da883-8" value="startConigDevice()" style="rounded=1;whiteSpace=wrap;html=1;shadow=0;labelBackgroundColor=none;strokeWidth=1;fontFamily=Verdana;fontSize=8;align=center;" parent="77e6c97f196da883-2" vertex="1">
          <mxGeometry x="25" y="65" width="150" height="35" as="geometry" />
        </mxCell>
        <mxCell id="77e6c97f196da883-13" value="" style="rhombus;whiteSpace=wrap;html=1;rounded=0;shadow=0;labelBackgroundColor=none;strokeWidth=1;fontFamily=Verdana;fontSize=8;align=center;" parent="77e6c97f196da883-2" vertex="1">
          <mxGeometry x="80" y="290" width="80" height="60" as="geometry" />
        </mxCell>
        <mxCell id="77e6c97f196da883-3" value="MSDeviceConfigAdapter" style="swimlane;html=1;startSize=20;fontSize=15;" parent="77e6c97f196da883-1" vertex="1">
          <mxGeometry x="213" y="20" width="203" height="1380" as="geometry" />
        </mxCell>
        <mxCell id="G-COS3JicrVC8gvn0CJn-9" style="edgeStyle=orthogonalEdgeStyle;rounded=0;orthogonalLoop=1;jettySize=auto;html=1;exitX=0.5;exitY=1;exitDx=0;exitDy=0;fontSize=17;" edge="1" parent="77e6c97f196da883-3" source="G-COS3JicrVC8gvn0CJn-4" target="G-COS3JicrVC8gvn0CJn-7">
          <mxGeometry relative="1" as="geometry" />
        </mxCell>
        <mxCell id="G-COS3JicrVC8gvn0CJn-4" value="startTask()" style="rounded=1;whiteSpace=wrap;html=1;shadow=0;labelBackgroundColor=none;strokeWidth=1;fontFamily=Verdana;fontSize=8;align=center;" vertex="1" parent="77e6c97f196da883-3">
          <mxGeometry x="18" y="65" width="150" height="35" as="geometry" />
        </mxCell>
        <mxCell id="G-COS3JicrVC8gvn0CJn-7" value="getConfigTask()" style="rounded=1;whiteSpace=wrap;html=1;shadow=0;labelBackgroundColor=none;strokeWidth=1;fontFamily=Verdana;fontSize=8;align=center;" vertex="1" parent="77e6c97f196da883-3">
          <mxGeometry x="18" y="120" width="150" height="35" as="geometry" />
        </mxCell>
        <mxCell id="G-COS3JicrVC8gvn0CJn-6" style="edgeStyle=orthogonalEdgeStyle;rounded=0;orthogonalLoop=1;jettySize=auto;html=1;exitX=1;exitY=0.5;exitDx=0;exitDy=0;fontSize=15;" edge="1" parent="77e6c97f196da883-1" source="77e6c97f196da883-8" target="G-COS3JicrVC8gvn0CJn-4">
          <mxGeometry relative="1" as="geometry" />
        </mxCell>
        <mxCell id="77e6c97f196da883-5" value="NetworkMonitor" style="swimlane;html=1;startSize=20;fontSize=15;" parent="1" vertex="1">
          <mxGeometry x="1711" width="630" height="1380" as="geometry" />
        </mxCell>
        <mxCell id="G-COS3JicrVC8gvn0CJn-216" value="" style="group" vertex="1" connectable="0" parent="77e6c97f196da883-5">
          <mxGeometry x="19.5" y="30" width="591" height="150" as="geometry" />
        </mxCell>
        <mxCell id="G-COS3JicrVC8gvn0CJn-209" value="" style="group;strokeColor=#00FF00;container=0;" vertex="1" connectable="0" parent="G-COS3JicrVC8gvn0CJn-216">
          <mxGeometry width="591" height="150" as="geometry" />
        </mxCell>
        <mxCell id="G-COS3JicrVC8gvn0CJn-215" value="" style="group" vertex="1" connectable="0" parent="G-COS3JicrVC8gvn0CJn-216">
          <mxGeometry x="11.001250000000027" y="7.5" width="559.0000000000002" height="135" as="geometry" />
        </mxCell>
        <mxCell id="G-COS3JicrVC8gvn0CJn-194" value="startMonitoring()" style="rounded=1;whiteSpace=wrap;html=1;shadow=0;labelBackgroundColor=none;strokeWidth=1;fontFamily=Verdana;fontSize=8;align=center;" vertex="1" parent="G-COS3JicrVC8gvn0CJn-215">
          <mxGeometry y="50" width="152.625" height="35" as="geometry" />
        </mxCell>
        <mxCell id="G-COS3JicrVC8gvn0CJn-196" value="WiFiNetworkMonitor()" style="rounded=1;whiteSpace=wrap;html=1;shadow=0;labelBackgroundColor=none;strokeWidth=1;fontFamily=Verdana;fontSize=8;align=center;" vertex="1" parent="G-COS3JicrVC8gvn0CJn-215">
          <mxGeometry x="240" width="163" height="35" as="geometry" />
        </mxCell>
        <mxCell id="G-COS3JicrVC8gvn0CJn-205" style="edgeStyle=orthogonalEdgeStyle;curved=1;rounded=0;orthogonalLoop=1;jettySize=auto;html=1;exitX=1;exitY=0;exitDx=0;exitDy=0;entryX=0;entryY=0.5;entryDx=0;entryDy=0;fontSize=12;" edge="1" parent="G-COS3JicrVC8gvn0CJn-215" source="G-COS3JicrVC8gvn0CJn-194" target="G-COS3JicrVC8gvn0CJn-196">
          <mxGeometry relative="1" as="geometry" />
        </mxCell>
        <mxCell id="G-COS3JicrVC8gvn0CJn-197" value="MobileNetworkMonitor()" style="rounded=1;whiteSpace=wrap;html=1;shadow=0;labelBackgroundColor=none;strokeWidth=1;fontFamily=Verdana;fontSize=8;align=center;" vertex="1" parent="G-COS3JicrVC8gvn0CJn-215">
          <mxGeometry x="240" y="50" width="163" height="35" as="geometry" />
        </mxCell>
        <mxCell id="G-COS3JicrVC8gvn0CJn-206" style="edgeStyle=orthogonalEdgeStyle;curved=1;rounded=0;orthogonalLoop=1;jettySize=auto;html=1;exitX=1;exitY=0.5;exitDx=0;exitDy=0;entryX=0;entryY=0.5;entryDx=0;entryDy=0;fontSize=12;" edge="1" parent="G-COS3JicrVC8gvn0CJn-215" source="G-COS3JicrVC8gvn0CJn-194" target="G-COS3JicrVC8gvn0CJn-197">
          <mxGeometry relative="1" as="geometry" />
        </mxCell>
        <mxCell id="G-COS3JicrVC8gvn0CJn-198" value="EthernetNetworkMonitor()" style="rounded=1;whiteSpace=wrap;html=1;shadow=0;labelBackgroundColor=none;strokeWidth=1;fontFamily=Verdana;fontSize=8;align=center;" vertex="1" parent="G-COS3JicrVC8gvn0CJn-215">
          <mxGeometry x="240" y="100" width="163" height="35" as="geometry" />
        </mxCell>
        <mxCell id="G-COS3JicrVC8gvn0CJn-207" style="edgeStyle=orthogonalEdgeStyle;curved=1;rounded=0;orthogonalLoop=1;jettySize=auto;html=1;exitX=1;exitY=1;exitDx=0;exitDy=0;entryX=0;entryY=0.5;entryDx=0;entryDy=0;fontSize=12;" edge="1" parent="G-COS3JicrVC8gvn0CJn-215" source="G-COS3JicrVC8gvn0CJn-194" target="G-COS3JicrVC8gvn0CJn-198">
          <mxGeometry relative="1" as="geometry" />
        </mxCell>
        <mxCell id="G-COS3JicrVC8gvn0CJn-199" value="start()" style="rounded=1;whiteSpace=wrap;html=1;shadow=0;labelBackgroundColor=none;strokeWidth=1;fontFamily=Verdana;fontSize=8;align=center;" vertex="1" parent="G-COS3JicrVC8gvn0CJn-215">
          <mxGeometry x="439.0000000000002" y="50" width="120" height="35" as="geometry" />
        </mxCell>
        <mxCell id="G-COS3JicrVC8gvn0CJn-203" style="edgeStyle=orthogonalEdgeStyle;curved=1;rounded=0;orthogonalLoop=1;jettySize=auto;html=1;exitX=1;exitY=0.5;exitDx=0;exitDy=0;fontSize=12;" edge="1" parent="G-COS3JicrVC8gvn0CJn-215" source="G-COS3JicrVC8gvn0CJn-197" target="G-COS3JicrVC8gvn0CJn-199">
          <mxGeometry relative="1" as="geometry" />
        </mxCell>
        <mxCell id="G-COS3JicrVC8gvn0CJn-200" value="start()" style="rounded=1;whiteSpace=wrap;html=1;shadow=0;labelBackgroundColor=none;strokeWidth=1;fontFamily=Verdana;fontSize=8;align=center;" vertex="1" parent="G-COS3JicrVC8gvn0CJn-215">
          <mxGeometry x="439.0000000000002" y="100" width="120" height="35" as="geometry" />
        </mxCell>
        <mxCell id="G-COS3JicrVC8gvn0CJn-204" style="edgeStyle=orthogonalEdgeStyle;curved=1;rounded=0;orthogonalLoop=1;jettySize=auto;html=1;exitX=1;exitY=0.5;exitDx=0;exitDy=0;fontSize=12;" edge="1" parent="G-COS3JicrVC8gvn0CJn-215" source="G-COS3JicrVC8gvn0CJn-198" target="G-COS3JicrVC8gvn0CJn-200">
          <mxGeometry relative="1" as="geometry" />
        </mxCell>
        <mxCell id="G-COS3JicrVC8gvn0CJn-201" value="start()" style="rounded=1;whiteSpace=wrap;html=1;shadow=0;labelBackgroundColor=none;strokeWidth=1;fontFamily=Verdana;fontSize=8;align=center;" vertex="1" parent="G-COS3JicrVC8gvn0CJn-215">
          <mxGeometry x="439.0000000000002" width="120" height="35" as="geometry" />
        </mxCell>
        <mxCell id="G-COS3JicrVC8gvn0CJn-202" style="edgeStyle=orthogonalEdgeStyle;curved=1;rounded=0;orthogonalLoop=1;jettySize=auto;html=1;exitX=1;exitY=0.5;exitDx=0;exitDy=0;fontSize=12;" edge="1" parent="G-COS3JicrVC8gvn0CJn-215" source="G-COS3JicrVC8gvn0CJn-196" target="G-COS3JicrVC8gvn0CJn-201">
          <mxGeometry relative="1" as="geometry" />
        </mxCell>
        <mxCell id="G-COS3JicrVC8gvn0CJn-117" value="MSDeviceConfigTask" style="swimlane;html=1;startSize=20;fontSize=15;" vertex="1" parent="1">
          <mxGeometry x="1170" width="488" height="1380" as="geometry" />
        </mxCell>
        <mxCell id="G-COS3JicrVC8gvn0CJn-172" value="MSDeviceConfigTask" style="swimlane;html=1;startSize=20;fontSize=15;" vertex="1" parent="G-COS3JicrVC8gvn0CJn-117">
          <mxGeometry width="488" height="1380" as="geometry" />
        </mxCell>
        <mxCell id="G-COS3JicrVC8gvn0CJn-183" value="" style="group" vertex="1" connectable="0" parent="G-COS3JicrVC8gvn0CJn-172">
          <mxGeometry x="20" y="60" width="448" height="90" as="geometry" />
        </mxCell>
        <mxCell id="G-COS3JicrVC8gvn0CJn-176" value="" style="group;strokeColor=#00FF00;container=0;" vertex="1" connectable="0" parent="G-COS3JicrVC8gvn0CJn-183">
          <mxGeometry width="448" height="90" as="geometry" />
        </mxCell>
        <mxCell id="G-COS3JicrVC8gvn0CJn-177" value="" style="group" vertex="1" connectable="0" parent="G-COS3JicrVC8gvn0CJn-183">
          <mxGeometry x="15.771249999999995" y="27.5" width="375.4574999999999" height="35" as="geometry" />
        </mxCell>
        <mxCell id="G-COS3JicrVC8gvn0CJn-178" value="" style="group" vertex="1" connectable="0" parent="G-COS3JicrVC8gvn0CJn-177">
          <mxGeometry width="375.4574999999999" height="35" as="geometry" />
        </mxCell>
        <mxCell id="G-COS3JicrVC8gvn0CJn-173" value="NetworkMonitor#startMonitor()" style="rounded=1;whiteSpace=wrap;html=1;shadow=0;labelBackgroundColor=none;strokeWidth=1;fontFamily=Verdana;fontSize=12;align=center;" vertex="1" parent="G-COS3JicrVC8gvn0CJn-178">
          <mxGeometry x="213.67499999999995" width="199.42999999999995" height="35" as="geometry" />
        </mxCell>
        <mxCell id="G-COS3JicrVC8gvn0CJn-174" value="MSDeviceConfigTask()" style="rounded=1;whiteSpace=wrap;html=1;shadow=0;labelBackgroundColor=none;strokeWidth=1;fontFamily=Verdana;fontSize=8;align=center;" vertex="1" parent="G-COS3JicrVC8gvn0CJn-178">
          <mxGeometry width="152.625" height="35" as="geometry" />
        </mxCell>
        <mxCell id="G-COS3JicrVC8gvn0CJn-175" style="edgeStyle=orthogonalEdgeStyle;curved=1;rounded=0;orthogonalLoop=1;jettySize=auto;html=1;exitX=1;exitY=0.5;exitDx=0;exitDy=0;entryX=0;entryY=0.5;entryDx=0;entryDy=0;fontSize=15;" edge="1" parent="G-COS3JicrVC8gvn0CJn-178" source="G-COS3JicrVC8gvn0CJn-174" target="G-COS3JicrVC8gvn0CJn-173">
          <mxGeometry relative="1" as="geometry" />
        </mxCell>
        <mxCell id="G-COS3JicrVC8gvn0CJn-79" value="Ap配网" style="text;html=1;strokeColor=none;fillColor=none;align=center;verticalAlign=middle;whiteSpace=wrap;rounded=0;dashed=1;fontSize=17;fontStyle=1" vertex="1" parent="1">
          <mxGeometry x="580" y="-160" width="152" height="30" as="geometry" />
        </mxCell>
        <mxCell id="G-COS3JicrVC8gvn0CJn-181" style="edgeStyle=orthogonalEdgeStyle;curved=1;rounded=0;orthogonalLoop=1;jettySize=auto;html=1;exitX=1;exitY=0.5;exitDx=0;exitDy=0;entryX=0.5;entryY=0;entryDx=0;entryDy=0;fontSize=12;" edge="1" parent="1" source="G-COS3JicrVC8gvn0CJn-124" target="G-COS3JicrVC8gvn0CJn-174">
          <mxGeometry relative="1" as="geometry" />
        </mxCell>
        <mxCell id="G-COS3JicrVC8gvn0CJn-217" style="edgeStyle=orthogonalEdgeStyle;curved=1;rounded=0;orthogonalLoop=1;jettySize=auto;html=1;exitX=1;exitY=0.5;exitDx=0;exitDy=0;entryX=0;entryY=0.5;entryDx=0;entryDy=0;fontSize=12;" edge="1" parent="1" source="G-COS3JicrVC8gvn0CJn-173" target="G-COS3JicrVC8gvn0CJn-194">
          <mxGeometry relative="1" as="geometry" />
        </mxCell>
        <mxCell id="G-COS3JicrVC8gvn0CJn-218" value="WiFINetworkMonitor" style="swimlane;html=1;startSize=20;fontSize=15;" vertex="1" parent="1">
          <mxGeometry x="2380" width="590" height="1380" as="geometry" />
        </mxCell>
        <mxCell id="G-COS3JicrVC8gvn0CJn-235" value="start()" style="rounded=1;whiteSpace=wrap;html=1;shadow=0;labelBackgroundColor=none;strokeWidth=1;fontFamily=Verdana;fontSize=8;align=center;" vertex="1" parent="G-COS3JicrVC8gvn0CJn-218">
          <mxGeometry x="30" y="90" width="150" height="35" as="geometry" />
        </mxCell>
        <mxCell id="G-COS3JicrVC8gvn0CJn-237" style="edgeStyle=orthogonalEdgeStyle;curved=1;rounded=0;orthogonalLoop=1;jettySize=auto;html=1;exitX=0.5;exitY=1;exitDx=0;exitDy=0;fontSize=12;entryX=0.5;entryY=0;entryDx=0;entryDy=0;" edge="1" parent="G-COS3JicrVC8gvn0CJn-218" source="G-COS3JicrVC8gvn0CJn-235" target="G-COS3JicrVC8gvn0CJn-285">
          <mxGeometry relative="1" as="geometry">
            <mxPoint x="260" y="140" as="targetPoint" />
          </mxGeometry>
        </mxCell>
        <mxCell id="G-COS3JicrVC8gvn0CJn-285" value="ConnectivityManager#networkCallback()" style="swimlane;fontStyle=0;childLayout=stackLayout;horizontal=1;startSize=30;horizontalStack=0;resizeParent=1;resizeParentMax=0;resizeLast=0;collapsible=1;marginBottom=0;dashed=1;dashPattern=1 1;fontSize=12;strokeColor=#00FF00;strokeWidth=1;fillColor=none;" vertex="1" parent="G-COS3JicrVC8gvn0CJn-218">
          <mxGeometry x="80" y="200" width="270" height="150" as="geometry" />
        </mxCell>
        <mxCell id="G-COS3JicrVC8gvn0CJn-286" value="onAvailabe()" style="text;strokeColor=none;fillColor=none;align=left;verticalAlign=middle;spacingLeft=4;spacingRight=4;overflow=hidden;points=[[0,0.5],[1,0.5]];portConstraint=eastwest;rotatable=0;dashed=1;dashPattern=1 1;fontSize=12;" vertex="1" parent="G-COS3JicrVC8gvn0CJn-285">
          <mxGeometry y="30" width="270" height="30" as="geometry" />
        </mxCell>
        <mxCell id="G-COS3JicrVC8gvn0CJn-287" value="onLost()" style="text;strokeColor=none;fillColor=none;align=left;verticalAlign=middle;spacingLeft=4;spacingRight=4;overflow=hidden;points=[[0,0.5],[1,0.5]];portConstraint=eastwest;rotatable=0;dashed=1;dashPattern=1 1;fontSize=12;" vertex="1" parent="G-COS3JicrVC8gvn0CJn-285">
          <mxGeometry y="60" width="270" height="30" as="geometry" />
        </mxCell>
        <mxCell id="G-COS3JicrVC8gvn0CJn-288" value="onUnavailable()" style="text;strokeColor=none;fillColor=none;align=left;verticalAlign=middle;spacingLeft=4;spacingRight=4;overflow=hidden;points=[[0,0.5],[1,0.5]];portConstraint=eastwest;rotatable=0;dashed=1;dashPattern=1 1;fontSize=12;" vertex="1" parent="G-COS3JicrVC8gvn0CJn-285">
          <mxGeometry y="90" width="270" height="30" as="geometry" />
        </mxCell>
        <mxCell id="G-COS3JicrVC8gvn0CJn-290" value="onCapabilitiesChanged()" style="text;strokeColor=none;fillColor=none;align=left;verticalAlign=middle;spacingLeft=4;spacingRight=4;overflow=hidden;points=[[0,0.5],[1,0.5]];portConstraint=eastwest;rotatable=0;dashed=1;dashPattern=1 1;fontSize=12;" vertex="1" parent="G-COS3JicrVC8gvn0CJn-285">
          <mxGeometry y="120" width="270" height="30" as="geometry" />
        </mxCell>
        <mxCell id="G-COS3JicrVC8gvn0CJn-293" value="notifyNetworkState()" style="rounded=1;whiteSpace=wrap;html=1;shadow=0;labelBackgroundColor=none;strokeWidth=1;fontFamily=Verdana;fontSize=8;align=center;" vertex="1" parent="G-COS3JicrVC8gvn0CJn-218">
          <mxGeometry x="360" y="430" width="150" height="35" as="geometry" />
        </mxCell>
        <mxCell id="G-COS3JicrVC8gvn0CJn-294" style="edgeStyle=orthogonalEdgeStyle;curved=1;rounded=0;orthogonalLoop=1;jettySize=auto;html=1;exitX=0;exitY=0.5;exitDx=0;exitDy=0;fontSize=12;entryX=0;entryY=0.75;entryDx=0;entryDy=0;" edge="1" parent="G-COS3JicrVC8gvn0CJn-218" source="G-COS3JicrVC8gvn0CJn-286" target="G-COS3JicrVC8gvn0CJn-293">
          <mxGeometry relative="1" as="geometry">
            <mxPoint x="50" y="430" as="targetPoint" />
            <Array as="points">
              <mxPoint x="20" y="245" />
              <mxPoint x="20" y="456" />
            </Array>
          </mxGeometry>
        </mxCell>
        <mxCell id="G-COS3JicrVC8gvn0CJn-296" style="edgeStyle=orthogonalEdgeStyle;curved=1;rounded=0;orthogonalLoop=1;jettySize=auto;html=1;exitX=0;exitY=0.5;exitDx=0;exitDy=0;entryX=0;entryY=0.75;entryDx=0;entryDy=0;fontSize=12;" edge="1" parent="G-COS3JicrVC8gvn0CJn-218" source="G-COS3JicrVC8gvn0CJn-287" target="G-COS3JicrVC8gvn0CJn-293">
          <mxGeometry relative="1" as="geometry">
            <Array as="points">
              <mxPoint x="40" y="275" />
              <mxPoint x="40" y="456" />
            </Array>
          </mxGeometry>
        </mxCell>
        <mxCell id="G-COS3JicrVC8gvn0CJn-297" value="notifyNetworkState()" style="rounded=1;whiteSpace=wrap;html=1;shadow=0;labelBackgroundColor=none;strokeWidth=1;fontFamily=Verdana;fontSize=8;align=center;" vertex="1" parent="G-COS3JicrVC8gvn0CJn-218">
          <mxGeometry x="360" y="370" width="150" height="35" as="geometry" />
        </mxCell>
        <mxCell id="G-COS3JicrVC8gvn0CJn-298" style="edgeStyle=orthogonalEdgeStyle;curved=1;rounded=0;orthogonalLoop=1;jettySize=auto;html=1;exitX=1;exitY=0.5;exitDx=0;exitDy=0;entryX=0.5;entryY=0;entryDx=0;entryDy=0;fontSize=12;" edge="1" parent="G-COS3JicrVC8gvn0CJn-218" source="G-COS3JicrVC8gvn0CJn-288" target="G-COS3JicrVC8gvn0CJn-297">
          <mxGeometry relative="1" as="geometry" />
        </mxCell>
        <mxCell id="G-COS3JicrVC8gvn0CJn-266" value="WiFINetworkMonitor" style="swimlane;html=1;startSize=20;fontSize=15;" vertex="1" parent="1">
          <mxGeometry x="3140" width="630" height="1380" as="geometry" />
        </mxCell>
        <mxCell id="G-COS3JicrVC8gvn0CJn-301" value="notifyNetworkState()" style="rounded=1;whiteSpace=wrap;html=1;shadow=0;labelBackgroundColor=none;strokeWidth=1;fontFamily=Verdana;fontSize=8;align=center;" vertex="1" parent="1">
          <mxGeometry x="2750" y="380" width="150" height="35" as="geometry" />
        </mxCell>
      </root>
    </mxGraphModel>
  </diagram>
</mxfile>
